<svg width="100%" preserveAspectRatio="none" height="5" viewBox="0 0 217 5" fill="none" xmlns="http://www.w3.org/2000/svg">
<path d="M2.05999 0.986084C1.23223 0.952951 0.534333 1.59713 0.5012 2.42489C0.468067 3.25265 1.11224 3.95055 1.94001 3.98368L2.05999 0.986084ZM36.1169 2.48488L36.0429 0.986708L36.1169 2.48488ZM116.338 2.48488L116.41 0.986631L116.338 2.48488ZM148.61 2.48457L148.676 3.98314L148.61 2.48457ZM179.961 2.48488L180.081 3.98005L179.961 2.48488ZM214.924 3.98295C215.751 4.02496 216.456 3.38831 216.498 2.56094C216.54 1.73358 215.903 1.02882 215.076 0.986813L214.924 3.98295ZM2 2.48488C1.94001 3.98368 1.94013 3.98369 1.94033 3.9837C1.94049 3.9837 1.94076 3.98371 1.94108 3.98373C1.94173 3.98375 1.94266 3.98379 1.94387 3.98384C1.9463 3.98393 1.94988 3.98408 1.95458 3.98426C1.96398 3.98463 1.9779 3.98518 1.99625 3.98589C2.03295 3.98732 2.08738 3.98941 2.15885 3.99211C2.30179 3.99749 2.51291 4.00527 2.78673 4.01489C3.33436 4.03413 4.13288 4.06074 5.13849 4.09029C7.14954 4.14938 9.98971 4.22027 13.3085 4.26754C19.9407 4.36198 28.5063 4.36243 36.1908 3.98306L36.0429 0.986708C28.4513 1.36149 19.9585 1.36193 13.3512 1.26784C10.0503 1.22083 7.22557 1.15032 5.22661 1.09158C4.22721 1.06221 3.43445 1.0358 2.89206 1.01674C2.62088 1.00721 2.4123 0.999526 2.27179 0.994232C2.20154 0.991586 2.14831 0.989537 2.11278 0.988156C2.09502 0.987466 2.08168 0.986942 2.07285 0.986594C2.06844 0.986419 2.06515 0.986289 2.06301 0.986204C2.06193 0.986161 2.06114 0.98613 2.06064 0.98611C2.06039 0.9861 2.06023 0.986093 2.0601 0.986088C2.06001 0.986085 2.05999 0.986084 2 2.48488ZM36.1908 3.98306C52.655 3.17027 61.8458 3.98488 78.5325 3.98488V0.984884C62.0905 0.984884 52.5856 0.170043 36.0429 0.986708L36.1908 3.98306ZM78.5325 3.98488C93.416 3.98488 101.592 3.27427 116.265 3.98314L116.41 0.986631C101.66 0.274049 93.1766 0.984884 78.5325 0.984884V3.98488ZM116.265 3.98314C131.244 4.70676 133.705 4.63663 148.676 3.98314L148.545 0.985999C133.647 1.63627 131.281 1.70502 116.41 0.986631L116.265 3.98314ZM148.676 3.98314C153.788 3.75998 158.987 3.96421 164.267 4.12514C169.52 4.28528 174.843 4.40179 180.081 3.98005L179.841 0.989722C174.787 1.3966 169.616 1.28679 164.358 1.12653C159.126 0.967059 153.795 0.75682 148.545 0.985999L148.676 3.98314ZM180.081 3.98005C186.778 3.44087 195.476 3.43928 202.533 3.57548C206.055 3.64345 209.154 3.74541 211.373 3.83037C212.483 3.87284 213.372 3.91105 213.983 3.93861C214.288 3.95239 214.524 3.96351 214.683 3.97117C214.763 3.975 214.823 3.97796 214.864 3.97996C214.884 3.98096 214.899 3.98171 214.909 3.98222C214.914 3.98247 214.918 3.98266 214.921 3.98278C214.922 3.98284 214.923 3.98289 214.923 3.98292C214.923 3.98293 214.924 3.98294 214.924 3.98295C214.924 3.98295 214.924 3.98295 215 2.48488C215.076 0.986813 215.076 0.986806 215.076 0.986795C215.076 0.986785 215.075 0.98677 215.075 0.986751C215.074 0.986714 215.073 0.98666 215.072 0.986591C215.069 0.986451 215.065 0.986246 215.059 0.985977C215.049 0.985441 215.033 0.98465 215.012 0.983618C214.97 0.981554 214.908 0.978524 214.827 0.974628C214.665 0.966836 214.426 0.95558 214.118 0.94166C213.501 0.913821 212.605 0.875321 211.488 0.832562C209.255 0.747054 206.136 0.644452 202.591 0.576042C195.517 0.439501 186.695 0.437913 179.841 0.989722L180.081 3.98005Z" fill="#30CDEF"/>
</svg>
