<svg width="156" height="5" viewBox="0 0 156 5" fill="none" xmlns="http://www.w3.org/2000/svg">
<path d="M2.084 1.32366C1.25688 1.27727 0.548748 1.91018 0.502354 2.73731C0.45596 3.56443 1.08887 4.27256 1.916 4.31896L2.084 1.32366ZM26.3463 2.82131L26.2428 1.32489L26.3463 2.82131ZM83.5931 2.82131L83.6944 1.32473L83.5931 2.82131ZM106.623 2.821L106.715 4.3182L106.623 2.821ZM128.996 2.82131L129.164 4.31185L128.996 2.82131ZM153.894 4.31753C154.72 4.37632 155.437 3.7541 155.496 2.92776C155.555 2.10142 154.933 1.38388 154.106 1.32509L153.894 4.31753ZM2 2.82131C1.916 4.31896 1.91612 4.31896 1.9163 4.31897C1.91642 4.31898 1.91665 4.31899 1.91691 4.31901C1.91742 4.31903 1.91813 4.31907 1.91904 4.31913C1.92088 4.31923 1.92352 4.31937 1.92698 4.31957C1.93388 4.31995 1.94402 4.3205 1.95731 4.32123C1.9839 4.32268 2.02315 4.32479 2.07457 4.32751C2.17741 4.33294 2.32894 4.34076 2.52525 4.35043C2.91784 4.36976 3.48965 4.39645 4.2094 4.42609C5.64866 4.48536 7.68074 4.55643 10.0552 4.60381C14.7967 4.69843 20.9342 4.6993 26.4498 4.31773L26.2428 1.32489C20.8571 1.69746 14.8215 1.69833 10.1151 1.60441C7.76567 1.55753 5.75517 1.4872 4.33283 1.42863C3.62177 1.39935 3.05803 1.37302 2.67277 1.35406C2.48015 1.34457 2.33217 1.33693 2.23274 1.33168C2.18302 1.32906 2.14544 1.32703 2.12049 1.32567C2.10802 1.32499 2.0987 1.32448 2.09259 1.32414C2.08954 1.32397 2.0873 1.32385 2.08586 1.32377C2.08515 1.32373 2.08463 1.3237 2.08432 1.32368C2.08417 1.32367 2.08409 1.32367 2.08401 1.32366C2.08398 1.32366 2.084 1.32366 2 2.82131ZM26.4498 4.31773C38.1721 3.5068 44.6228 4.32131 56.6147 4.32131V1.32131C44.9655 1.32131 38.0748 0.506362 26.2428 1.32489L26.4498 4.31773ZM56.6147 4.32131C67.3181 4.32131 73.0469 3.61079 83.4918 4.31788L83.6944 1.32473C73.1421 0.610373 66.9827 1.32131 56.6147 1.32131V4.32131ZM83.4918 4.31788C94.2181 5.04402 96.006 4.97323 106.715 4.3182L106.532 1.3238C95.9259 1.97253 94.2691 2.04062 83.6944 1.32473L83.4918 4.31788ZM106.715 4.3182C110.316 4.09793 113.98 4.29926 117.764 4.46089C121.512 4.62098 125.363 4.7407 129.164 4.31185L128.828 1.33077C125.284 1.73055 121.646 1.62394 117.892 1.46363C114.175 1.30486 110.326 1.09173 106.532 1.3238L106.715 4.3182ZM129.164 4.31185C133.89 3.7787 140.054 3.7756 145.084 3.91164C147.589 3.97939 149.794 4.08104 151.373 4.16574C152.162 4.20807 152.794 4.24614 153.228 4.27357C153.445 4.28729 153.612 4.29834 153.725 4.30593C153.781 4.30973 153.824 4.31266 153.852 4.31462C153.866 4.31561 153.877 4.31635 153.884 4.31684C153.887 4.31708 153.89 4.31726 153.891 4.31738C153.892 4.31744 153.893 4.31748 153.893 4.3175C153.893 4.31751 153.893 4.31752 153.894 4.31753C153.894 4.31753 153.894 4.31753 154 2.82131C154.106 1.32509 154.106 1.32508 154.106 1.32507C154.106 1.32506 154.106 1.32504 154.105 1.32502C154.105 1.32498 154.104 1.32492 154.103 1.32485C154.101 1.3247 154.098 1.32448 154.094 1.32421C154.086 1.32366 154.075 1.32285 154.059 1.3218C154.029 1.31971 153.985 1.31664 153.926 1.31272C153.81 1.30486 153.638 1.29354 153.417 1.27955C152.974 1.25158 152.333 1.21294 151.533 1.17004C149.935 1.08427 147.702 0.981361 145.165 0.912737C140.11 0.77603 133.772 0.772934 128.828 1.33077L129.164 4.31185Z" fill="#11DD93"/>
</svg>
