<svg width="145" height="5" viewBox="0 0 145 5" fill="none" xmlns="http://www.w3.org/2000/svg">
<path d="M2.09053 0.987618C1.26362 0.937617 0.552736 1.56743 0.502735 2.39435C0.452734 3.22127 1.08255 3.93215 1.90947 3.98215L2.09053 0.987618ZM24.5844 2.48488L24.4729 0.989038L24.5844 2.48488ZM77.6883 2.48488L77.7975 0.988862L77.6883 2.48488ZM99.0519 2.48457L99.1506 3.98132L99.0519 2.48457ZM119.805 2.48488L119.986 3.97391L119.805 2.48488ZM142.885 3.98049C143.711 4.04384 144.432 3.4256 144.496 2.59959C144.559 1.77359 143.941 1.05263 143.115 0.989276L142.885 3.98049ZM2 2.48488C1.90947 3.98215 1.90959 3.98216 1.90977 3.98217C1.90989 3.98217 1.91011 3.98219 1.91035 3.9822C1.91084 3.98223 1.91152 3.98227 1.91238 3.98232C1.91411 3.98243 1.9166 3.98258 1.91983 3.98277C1.9263 3.98316 1.93576 3.98372 1.94815 3.98444C1.97294 3.9859 2.00948 3.98802 2.0573 3.99075C2.15295 3.99619 2.29378 4.00403 2.47616 4.01371C2.84089 4.03307 3.37193 4.05979 4.04024 4.08946C5.37661 4.14878 7.26325 4.21992 9.46779 4.26734C13.8687 4.36201 19.5697 4.36302 24.696 3.98073L24.4729 0.989038C19.4867 1.36089 13.8955 1.3619 9.53231 1.26803C7.3548 1.22119 5.49142 1.15092 4.17328 1.09241C3.51433 1.06316 2.99198 1.03686 2.63516 1.01792C2.45675 1.00845 2.31975 1.00083 2.22777 0.995592C2.18178 0.992975 2.14704 0.990956 2.12402 0.989604C2.11251 0.988928 2.10392 0.988419 2.09832 0.988085C2.09553 0.987918 2.09347 0.987795 2.09217 0.987717C2.09152 0.987678 2.09106 0.98765 2.09079 0.987633C2.09065 0.987625 2.09059 0.987621 2.09052 0.987617C2.0905 0.987616 2.09053 0.987618 2 2.48488ZM24.696 3.98073C35.5617 3.17041 41.5125 3.98488 52.6623 3.98488V0.984884C41.8819 0.984884 35.4568 0.169901 24.4729 0.989038L24.696 3.98073ZM52.6623 3.98488C62.6164 3.98488 67.8981 3.2744 77.5791 3.98091L77.7975 0.988862C68.0008 0.273914 62.2548 0.984884 52.6623 0.984884V3.98488ZM77.5791 3.98091C87.5405 4.70787 89.209 4.63686 99.1506 3.98132L98.9532 0.987822C89.1226 1.63604 87.5956 1.70391 77.7975 0.988862L77.5791 3.98091ZM99.1506 3.98132C102.477 3.762 105.862 3.96239 109.377 4.12425C112.854 4.28432 116.441 4.40509 119.986 3.97391L119.624 0.995856C116.356 1.3933 112.997 1.28775 109.515 1.12742C106.072 0.968884 102.487 0.754798 98.9532 0.987822L99.1506 3.98132ZM119.986 3.97391C124.354 3.44273 130.059 3.43914 134.723 3.57513C137.044 3.6428 139.088 3.74435 140.551 3.82896C141.282 3.87125 141.867 3.90928 142.269 3.93666C142.47 3.95036 142.625 3.96139 142.729 3.96896C142.782 3.97274 142.821 3.97566 142.847 3.97762C142.86 3.9786 142.87 3.97933 142.876 3.97982C142.88 3.98006 142.882 3.98024 142.883 3.98035C142.884 3.98041 142.885 3.98045 142.885 3.98047C142.885 3.98048 142.885 3.98049 142.885 3.98049C142.885 3.98049 142.885 3.98049 143 2.48488C143.115 0.989276 143.115 0.989265 143.114 0.98925C143.114 0.989239 143.114 0.98922 143.114 0.989199C143.113 0.989156 143.112 0.989097 143.111 0.989022C143.109 0.988872 143.107 0.988657 143.103 0.988378C143.096 0.98782 143.085 0.987008 143.071 0.985955C143.042 0.983849 143.001 0.980776 142.947 0.976837C142.838 0.968959 142.679 0.957616 142.473 0.943607C142.062 0.915593 141.466 0.876908 140.724 0.833966C139.239 0.748109 137.166 0.645095 134.81 0.5764C130.119 0.439638 124.227 0.436048 119.624 0.995856L119.986 3.97391Z" fill="#F97864"/>
</svg>
