<svg width="99" height="5" viewBox="0 0 99 5" fill="none" xmlns="http://www.w3.org/2000/svg">
<path d="M2.55144 0.990888C1.72633 0.916838 0.997413 1.52569 0.923363 2.3508C0.849313 3.17592 1.45817 3.90483 2.28328 3.97888L2.55144 0.990888ZM17.6338 2.48488L17.4688 0.993989L17.6338 2.48488ZM53.413 2.48488L53.5746 0.993606L53.413 2.48488ZM67.807 2.48457L67.9531 3.97744L67.807 2.48457ZM81.7897 2.48488L82.0561 3.96103L81.7897 2.48488ZM97.2477 3.97526C98.0708 4.06896 98.814 3.47765 98.9077 2.65454C99.0014 1.83143 98.4101 1.08821 97.587 0.994509L97.2477 3.97526ZM2.41736 2.48488C2.28328 3.97888 2.28343 3.97889 2.28361 3.97891C2.28371 3.97892 2.28393 3.97894 2.28413 3.97896C2.28455 3.97899 2.28509 3.97904 2.28576 3.9791C2.2871 3.97922 2.28894 3.97938 2.2913 3.97959C2.296 3.98001 2.30272 3.9806 2.31143 3.98136C2.32884 3.98288 2.35418 3.98506 2.38714 3.98785C2.45305 3.99341 2.54947 4.00138 2.67394 4.01118C2.92286 4.03079 3.28414 4.05778 3.73819 4.08769C4.64592 4.1475 5.92646 4.21915 7.42272 4.26692C10.4033 4.36209 14.2888 4.36429 17.7988 3.97578L17.4688 0.993989C14.1655 1.35962 10.4428 1.36182 7.51846 1.26845C6.06227 1.22196 4.81619 1.15221 3.93542 1.09418C3.49522 1.06518 3.14677 1.03914 2.90953 1.02045C2.79092 1.0111 2.70015 1.0036 2.63965 0.998492C2.6094 0.995937 2.58672 0.99398 2.57192 0.992689C2.56451 0.992044 2.55908 0.991566 2.55565 0.991263C2.55394 0.991111 2.55273 0.991003 2.55203 0.990941C2.55167 0.990909 2.55145 0.990889 2.55135 0.99088C2.5513 0.990876 2.55132 0.990878 2.5513 0.990876C2.55135 0.99088 2.55144 0.990888 2.41736 2.48488ZM17.7988 3.97578C21.3837 3.57898 24.1888 3.57818 27.0296 3.67843C29.8546 3.77812 32.8243 3.98488 36.5516 3.98488V0.984884C32.8909 0.984884 30.0821 0.784282 27.1354 0.680294C24.2045 0.576863 21.2446 0.576057 17.4688 0.993989L17.7988 3.97578ZM36.5516 3.98488C39.8766 3.98488 42.5303 3.80425 45.0428 3.71747C47.5707 3.63015 50.0641 3.63092 53.2515 3.97616L53.5746 0.993606C50.2003 0.62812 47.5554 0.628891 44.9392 0.719255C42.3076 0.810153 39.8114 0.984884 36.5516 0.984884V3.98488ZM53.2515 3.97616C56.5822 4.33693 58.5892 4.50868 60.6152 4.49955C62.6321 4.49045 64.6394 4.30174 67.9531 3.97744L67.6609 0.991704C64.3137 1.31928 62.4523 1.49123 60.6016 1.49958C58.76 1.50788 56.9004 1.35385 53.5746 0.993606L53.2515 3.97616ZM67.9531 3.97744C70.1103 3.76632 72.3102 3.95848 74.7079 4.12234C77.0483 4.28229 79.5576 4.41204 82.0561 3.96103L81.5232 1.00874C79.4313 1.38636 77.2602 1.28978 74.9124 1.12932C72.6219 0.972789 70.1257 0.75048 67.6609 0.991704L67.9531 3.97744ZM82.0561 3.96103C84.9058 3.44662 88.674 3.43887 91.8051 3.57436C93.355 3.64143 94.7201 3.7421 95.6972 3.82597C96.1853 3.86787 96.5757 3.90551 96.8428 3.93252C96.9763 3.94603 97.079 3.95687 97.1475 3.96426C97.1818 3.96796 97.2076 3.97079 97.2244 3.97265C97.2328 3.97359 97.239 3.97428 97.2429 3.97472C97.2448 3.97493 97.2462 3.97509 97.247 3.97518C97.2474 3.97523 97.2477 3.97526 97.2478 3.97527C97.2479 3.97528 97.2478 3.97527 97.2479 3.97528C97.2478 3.97527 97.2477 3.97526 97.4174 2.48488C97.587 0.994509 97.5868 0.99449 97.5866 0.994466C97.5865 0.994453 97.5863 0.994425 97.586 0.994399C97.5856 0.994345 97.585 0.994275 97.5842 0.994189C97.5827 0.994017 97.5806 0.99378 97.5779 0.993479C97.5725 0.992877 97.5649 0.992021 97.555 0.990923C97.5352 0.988727 97.5064 0.985564 97.469 0.981534C97.3942 0.973475 97.285 0.961946 97.1447 0.947751C96.8641 0.919365 96.4585 0.880288 95.9537 0.83696C94.9449 0.750361 93.5364 0.64647 91.9348 0.577166C88.763 0.439911 84.7174 0.432158 81.5232 1.00874L82.0561 3.96103Z" fill="#B973FF"/>
</svg>
