<svg width="75" height="75" viewBox="0 0 75 75" fill="none" xmlns="http://www.w3.org/2000/svg">
<g clip-path="url(#clip0_74_262)">
<path fill-rule="evenodd" clip-rule="evenodd" d="M60.6362 19.3448C55.0982 42.8257 35.2859 57.0774 11.7122 51.0102C10.9274 50.8081 10.1274 51.2803 9.92302 52.0567C9.72191 52.8451 10.1944 53.6463 10.9792 53.8484C36.25 60.3629 57.5545 45.183 63.493 20.0226C63.6797 19.2381 63.1892 18.4416 62.4004 18.2534C61.6148 18.0773 60.8229 18.5603 60.6362 19.3448Z" fill="#87E9FF"/>
<path d="M26.586 37.5907C28.866 36.9797 30.219 34.6363 29.6081 32.3564C28.9972 30.0764 26.6537 28.7235 24.3738 29.3344C22.0938 29.9453 20.7408 32.2887 21.3517 34.5686C21.9626 36.8486 24.3061 38.2016 26.586 37.5907Z" fill="#87E9FF"/>
<path d="M42.4997 28.6201C44.7351 28.0211 46.0617 25.7235 45.4627 23.4881C44.8638 21.2527 42.566 19.9262 40.3307 20.5252C38.0953 21.1241 36.7688 23.4218 37.3677 25.6571C37.9667 27.8925 40.2643 29.2191 42.4997 28.6201Z" fill="#87E9FF"/>
</g>
<defs>
<clipPath id="clip0_74_262">
<rect width="60.8812" height="60.8812" fill="white" transform="translate(0 15.7572) rotate(-15)"/>
</clipPath>
</defs>
</svg>
