<svg width="171" height="24" viewBox="0 0 171 24" fill="none" xmlns="http://www.w3.org/2000/svg">
<path d="M46.212 14.74C46.212 14.956 46.332 15.082 46.572 15.118L47.922 15.334V16H42.918V15.334L44.412 15.118C44.532 15.106 44.628 15.07 44.7 15.01C44.784 14.95 44.826 14.854 44.826 14.722V8.422C44.706 8.47 44.532 8.524 44.304 8.584C44.088 8.644 43.854 8.698 43.602 8.746C43.362 8.794 43.146 8.83 42.954 8.854L42.81 8.134C43.122 8.062 43.44 7.96 43.764 7.828C44.088 7.696 44.394 7.546 44.682 7.378C44.97 7.21 45.222 7.036 45.438 6.856L46.212 7.018V14.74ZM52.7176 7.63C53.4136 7.63 53.8996 7.978 54.1756 8.674C54.4636 9.37 54.6076 10.366 54.6076 11.662C54.6076 12.43 54.5416 13.096 54.4096 13.66C54.2896 14.212 54.0976 14.644 53.8336 14.956C53.5696 15.256 53.2216 15.406 52.7896 15.406C52.0816 15.406 51.5896 15.058 51.3136 14.362C51.0376 13.654 50.8996 12.658 50.8996 11.374C50.8996 10.606 50.9596 9.946 51.0796 9.394C51.1996 8.83 51.3916 8.398 51.6556 8.098C51.9316 7.786 52.2856 7.63 52.7176 7.63ZM52.6456 16.18C53.3776 16.18 54.0076 15.988 54.5356 15.604C55.0636 15.208 55.4656 14.656 55.7416 13.948C56.0296 13.228 56.1736 12.376 56.1736 11.392C56.1736 10.516 56.0656 9.736 55.8496 9.052C55.6336 8.368 55.2796 7.834 54.7876 7.45C54.3076 7.054 53.6656 6.856 52.8616 6.856C52.1296 6.856 51.4996 7.054 50.9716 7.45C50.4436 7.834 50.0356 8.386 49.7476 9.106C49.4716 9.814 49.3336 10.66 49.3336 11.644C49.3336 12.52 49.4416 13.3 49.6576 13.984C49.8736 14.668 50.2216 15.208 50.7016 15.604C51.1936 15.988 51.8416 16.18 52.6456 16.18ZM61.366 7.63C62.062 7.63 62.548 7.978 62.824 8.674C63.112 9.37 63.256 10.366 63.256 11.662C63.256 12.43 63.19 13.096 63.058 13.66C62.938 14.212 62.746 14.644 62.482 14.956C62.218 15.256 61.87 15.406 61.438 15.406C60.73 15.406 60.238 15.058 59.962 14.362C59.686 13.654 59.548 12.658 59.548 11.374C59.548 10.606 59.608 9.946 59.728 9.394C59.848 8.83 60.04 8.398 60.304 8.098C60.58 7.786 60.934 7.63 61.366 7.63ZM61.294 16.18C62.026 16.18 62.656 15.988 63.184 15.604C63.712 15.208 64.114 14.656 64.39 13.948C64.678 13.228 64.822 12.376 64.822 11.392C64.822 10.516 64.714 9.736 64.498 9.052C64.282 8.368 63.928 7.834 63.436 7.45C62.956 7.054 62.314 6.856 61.51 6.856C60.778 6.856 60.148 7.054 59.62 7.45C59.092 7.834 58.684 8.386 58.396 9.106C58.12 9.814 57.982 10.66 57.982 11.644C57.982 12.52 58.09 13.3 58.306 13.984C58.522 14.668 58.87 15.208 59.35 15.604C59.842 15.988 60.49 16.18 61.294 16.18ZM69.2045 14.722V13.246L69.2585 12.13L68.1245 12.184H66.7385V11.194H68.1245L69.2585 11.248L69.2045 10.132V8.638H70.2665V10.132L70.2125 11.248L71.3465 11.194H72.7325V12.184H71.3465L70.2125 12.13L70.2665 13.246V14.722H69.2045ZM78.3509 12.382C78.3509 11.602 78.4889 10.912 78.7649 10.312C79.0409 9.7 79.4429 9.22 79.9709 8.872C80.5109 8.512 81.1769 8.332 81.9689 8.332C82.3889 8.332 82.8089 8.38 83.2289 8.476C83.6489 8.572 83.9909 8.686 84.2549 8.818C84.2789 9.166 84.2729 9.538 84.2369 9.934C84.2129 10.318 84.1769 10.678 84.1289 11.014H83.4089L83.1209 9.934C83.0969 9.802 83.0669 9.694 83.0309 9.61C82.9949 9.526 82.9349 9.454 82.8509 9.394C82.7429 9.298 82.5989 9.226 82.4189 9.178C82.2389 9.118 82.0409 9.088 81.8249 9.088C81.2129 9.088 80.7389 9.334 80.4029 9.826C80.0669 10.318 79.8989 11.062 79.8989 12.058C79.8989 13.126 80.0849 13.918 80.4569 14.434C80.8409 14.95 81.3809 15.208 82.0769 15.208C82.4729 15.208 82.8329 15.13 83.1569 14.974C83.4809 14.818 83.7449 14.632 83.9489 14.416L84.3449 14.758C84.1289 15.202 83.7869 15.55 83.3189 15.802C82.8629 16.054 82.3109 16.18 81.6629 16.18C80.9309 16.18 80.3189 16.018 79.8269 15.694C79.3349 15.358 78.9629 14.908 78.7109 14.344C78.4709 13.768 78.3509 13.114 78.3509 12.382ZM85.4817 16V15.334L86.2737 15.208C86.5137 15.172 86.6337 15.04 86.6337 14.812V5.722C86.6337 5.494 86.5137 5.362 86.2737 5.326L85.3197 5.182V4.588C85.6917 4.48 86.1057 4.396 86.5617 4.336C87.0297 4.276 87.4497 4.24 87.8217 4.228L88.0377 4.444V14.794C88.0377 15.022 88.1577 15.16 88.3977 15.208L89.0997 15.334V16H85.4817ZM90.3777 16V15.334L91.0797 15.208C91.1757 15.184 91.2597 15.142 91.3317 15.082C91.4037 15.022 91.4397 14.926 91.4397 14.794V11.464C91.4397 10.744 91.3377 10.204 91.1337 9.844C90.9417 9.484 90.5577 9.304 89.9817 9.304C89.5617 9.304 89.1477 9.388 88.7397 9.556C88.3317 9.724 87.9657 9.97 87.6417 10.294L87.6957 9.736C88.0797 9.208 88.5237 8.842 89.0277 8.638C89.5317 8.434 90.0537 8.332 90.5937 8.332C91.4577 8.332 92.0457 8.584 92.3577 9.088C92.6697 9.592 92.8257 10.3 92.8257 11.212V14.794C92.8257 15.034 92.9457 15.172 93.1857 15.208L93.9957 15.334V16H90.3777ZM95.0857 12.364C95.0857 11.104 95.3977 10.12 96.0217 9.412C96.6577 8.692 97.5097 8.332 98.5777 8.332C99.3937 8.332 100.054 8.554 100.558 8.998C101.062 9.442 101.314 10.09 101.314 10.942C101.314 11.062 101.308 11.212 101.296 11.392C101.284 11.56 101.266 11.716 101.242 11.86H96.1117V11.176H99.8917C99.9037 11.116 99.9097 11.062 99.9097 11.014C99.9217 10.966 99.9277 10.906 99.9277 10.834C99.9277 10.318 99.7897 9.898 99.5137 9.574C99.2497 9.238 98.8717 9.07 98.3797 9.07C97.8157 9.07 97.3717 9.304 97.0477 9.772C96.7237 10.24 96.5617 10.996 96.5617 12.04C96.5617 12.832 96.6577 13.462 96.8497 13.93C97.0417 14.386 97.2997 14.716 97.6237 14.92C97.9597 15.112 98.3437 15.208 98.7757 15.208C99.1957 15.208 99.5857 15.112 99.9457 14.92C100.318 14.728 100.612 14.464 100.828 14.128L101.278 14.398C101.122 14.938 100.786 15.37 100.27 15.694C99.7657 16.018 99.1357 16.18 98.3797 16.18C97.6357 16.18 97.0177 16.018 96.5257 15.694C96.0457 15.358 95.6857 14.908 95.4457 14.344C95.2057 13.768 95.0857 13.108 95.0857 12.364ZM102.91 15.622C102.862 15.262 102.844 14.914 102.856 14.578C102.868 14.23 102.892 13.906 102.928 13.606H103.684L103.954 14.596C104.014 14.86 104.116 15.04 104.26 15.136C104.38 15.208 104.554 15.286 104.782 15.37C105.022 15.454 105.304 15.496 105.628 15.496C106.084 15.496 106.426 15.394 106.654 15.19C106.894 14.974 107.014 14.686 107.014 14.326C107.014 14.05 106.936 13.828 106.78 13.66C106.624 13.48 106.396 13.318 106.096 13.174C105.796 13.03 105.43 12.868 104.998 12.688C104.41 12.448 103.93 12.178 103.558 11.878C103.186 11.566 103 11.11 103 10.51C103 9.79 103.252 9.25 103.756 8.89C104.272 8.518 104.938 8.332 105.754 8.332C106.138 8.332 106.534 8.374 106.942 8.458C107.35 8.542 107.692 8.644 107.968 8.764C107.98 9.088 107.974 9.412 107.95 9.736C107.926 10.06 107.884 10.378 107.824 10.69H107.122L106.906 9.79C106.87 9.67 106.828 9.568 106.78 9.484C106.732 9.4 106.654 9.328 106.546 9.268C106.438 9.208 106.306 9.154 106.15 9.106C106.006 9.058 105.832 9.028 105.628 9.016C105.244 9.004 104.926 9.088 104.674 9.268C104.422 9.448 104.296 9.73 104.296 10.114C104.296 10.402 104.38 10.636 104.548 10.816C104.716 10.996 104.926 11.146 105.178 11.266C105.442 11.374 105.718 11.482 106.006 11.59C106.414 11.746 106.798 11.92 107.158 12.112C107.518 12.304 107.806 12.55 108.022 12.85C108.25 13.15 108.364 13.528 108.364 13.984C108.364 14.68 108.094 15.22 107.554 15.604C107.014 15.988 106.312 16.18 105.448 16.18C104.932 16.18 104.452 16.12 104.008 16C103.564 15.88 103.198 15.754 102.91 15.622ZM109.907 15.622C109.859 15.262 109.841 14.914 109.853 14.578C109.865 14.23 109.889 13.906 109.925 13.606H110.681L110.951 14.596C111.011 14.86 111.113 15.04 111.257 15.136C111.377 15.208 111.551 15.286 111.779 15.37C112.019 15.454 112.301 15.496 112.625 15.496C113.081 15.496 113.423 15.394 113.651 15.19C113.891 14.974 114.011 14.686 114.011 14.326C114.011 14.05 113.933 13.828 113.777 13.66C113.621 13.48 113.393 13.318 113.093 13.174C112.793 13.03 112.427 12.868 111.995 12.688C111.407 12.448 110.927 12.178 110.555 11.878C110.183 11.566 109.997 11.11 109.997 10.51C109.997 9.79 110.249 9.25 110.753 8.89C111.269 8.518 111.935 8.332 112.751 8.332C113.135 8.332 113.531 8.374 113.939 8.458C114.347 8.542 114.689 8.644 114.965 8.764C114.977 9.088 114.971 9.412 114.947 9.736C114.923 10.06 114.881 10.378 114.821 10.69H114.119L113.903 9.79C113.867 9.67 113.825 9.568 113.777 9.484C113.729 9.4 113.651 9.328 113.543 9.268C113.435 9.208 113.303 9.154 113.147 9.106C113.003 9.058 112.829 9.028 112.625 9.016C112.241 9.004 111.923 9.088 111.671 9.268C111.419 9.448 111.293 9.73 111.293 10.114C111.293 10.402 111.377 10.636 111.545 10.816C111.713 10.996 111.923 11.146 112.175 11.266C112.439 11.374 112.715 11.482 113.003 11.59C113.411 11.746 113.795 11.92 114.155 12.112C114.515 12.304 114.803 12.55 115.019 12.85C115.247 13.15 115.361 13.528 115.361 13.984C115.361 14.68 115.091 15.22 114.551 15.604C114.011 15.988 113.309 16.18 112.445 16.18C111.929 16.18 111.449 16.12 111.005 16C110.561 15.88 110.195 15.754 109.907 15.622ZM120.427 19.24V18.574L121.237 18.448C121.465 18.424 121.579 18.292 121.579 18.052V9.898C121.579 9.658 121.471 9.52 121.255 9.484L120.337 9.358V8.71C120.709 8.602 121.087 8.518 121.471 8.458C121.855 8.398 122.233 8.362 122.605 8.35L122.839 8.584L122.983 9.736V18.052C122.983 18.292 123.103 18.424 123.343 18.448L124.441 18.574V19.24H120.427ZM124.297 16.144C124.033 16.144 123.745 16.12 123.433 16.072C123.133 16.024 122.869 15.94 122.641 15.82L122.803 14.938C122.935 15.082 123.139 15.196 123.415 15.28C123.691 15.364 123.997 15.406 124.333 15.406C125.017 15.406 125.563 15.172 125.971 14.704C126.379 14.236 126.589 13.414 126.601 12.238C126.613 11.254 126.457 10.522 126.133 10.042C125.821 9.55 125.323 9.304 124.639 9.304C124.231 9.304 123.877 9.382 123.577 9.538C123.277 9.694 123.043 9.862 122.875 10.042L122.695 9.7C122.935 9.328 123.253 9.01 123.649 8.746C124.057 8.47 124.579 8.332 125.215 8.332C125.755 8.332 126.247 8.458 126.691 8.71C127.135 8.95 127.483 9.334 127.735 9.862C127.987 10.378 128.113 11.056 128.113 11.896C128.113 13.228 127.771 14.272 127.087 15.028C126.415 15.772 125.485 16.144 124.297 16.144ZM131.896 14.794C131.896 15.034 132.01 15.172 132.238 15.208L133.192 15.352V16H129.178V15.334L130.132 15.208C130.372 15.172 130.492 15.04 130.492 14.812V5.74C130.492 5.512 130.372 5.38 130.132 5.344L129.142 5.2V4.606C129.514 4.498 129.934 4.414 130.402 4.354C130.882 4.282 131.308 4.24 131.68 4.228L131.896 4.444V14.794ZM136.265 16.144C135.665 16.144 135.161 15.988 134.753 15.676C134.357 15.364 134.159 14.914 134.159 14.326C134.159 13.822 134.303 13.426 134.591 13.138C134.891 12.838 135.263 12.622 135.707 12.49C136.151 12.358 136.601 12.274 137.057 12.238L138.821 12.094V12.778L137.291 12.922C136.763 12.958 136.355 13.078 136.067 13.282C135.791 13.486 135.653 13.792 135.653 14.2C135.653 14.524 135.743 14.776 135.923 14.956C136.115 15.136 136.397 15.226 136.769 15.226C137.165 15.226 137.555 15.136 137.939 14.956C138.335 14.776 138.635 14.554 138.839 14.29L139.001 14.632C138.749 15.076 138.377 15.442 137.885 15.73C137.405 16.006 136.865 16.144 136.265 16.144ZM134.375 9.916C134.555 9.412 134.915 9.028 135.455 8.764C135.995 8.5 136.613 8.368 137.309 8.368C138.185 8.368 138.839 8.59 139.271 9.034C139.703 9.466 139.919 10.132 139.919 11.032V14.758C139.919 15.022 140.051 15.166 140.315 15.19L141.053 15.262V15.874C140.933 15.91 140.747 15.958 140.495 16.018C140.243 16.078 140.009 16.108 139.793 16.108C139.433 16.108 139.145 16.006 138.929 15.802C138.725 15.598 138.599 15.298 138.551 14.902V11.23C138.551 10.558 138.413 10.09 138.137 9.826C137.873 9.55 137.465 9.412 136.913 9.412C136.505 9.412 136.115 9.478 135.743 9.61C135.371 9.742 135.029 9.958 134.717 10.258L134.375 9.916ZM141.499 18.43C142.075 18.382 142.579 18.304 143.011 18.196C143.443 18.088 143.815 17.92 144.127 17.692C144.451 17.476 144.733 17.164 144.973 16.756C145.225 16.348 145.453 15.82 145.657 15.172L147.475 9.358L146.413 9.16V8.512H149.257V9.16L148.717 9.322C148.621 9.346 148.537 9.388 148.465 9.448C148.405 9.496 148.357 9.574 148.321 9.682L146.089 16.288C145.729 17.356 145.315 18.136 144.847 18.628C144.391 19.132 143.785 19.384 143.029 19.384C142.777 19.384 142.519 19.372 142.255 19.348C142.003 19.324 141.751 19.294 141.499 19.258V18.43ZM145.783 16H144.685L142.309 9.664C142.237 9.484 142.105 9.37 141.913 9.322L141.373 9.16V8.512H144.919V9.16L143.803 9.358L146.017 15.568L145.783 16ZM149.683 12.364C149.683 11.104 149.995 10.12 150.619 9.412C151.255 8.692 152.107 8.332 153.175 8.332C153.991 8.332 154.651 8.554 155.155 8.998C155.659 9.442 155.911 10.09 155.911 10.942C155.911 11.062 155.905 11.212 155.893 11.392C155.881 11.56 155.863 11.716 155.839 11.86H150.709V11.176H154.489C154.501 11.116 154.507 11.062 154.507 11.014C154.519 10.966 154.525 10.906 154.525 10.834C154.525 10.318 154.387 9.898 154.111 9.574C153.847 9.238 153.469 9.07 152.977 9.07C152.413 9.07 151.969 9.304 151.645 9.772C151.321 10.24 151.159 10.996 151.159 12.04C151.159 12.832 151.255 13.462 151.447 13.93C151.639 14.386 151.897 14.716 152.221 14.92C152.557 15.112 152.941 15.208 153.373 15.208C153.793 15.208 154.183 15.112 154.543 14.92C154.915 14.728 155.209 14.464 155.425 14.128L155.875 14.398C155.719 14.938 155.383 15.37 154.867 15.694C154.363 16.018 153.733 16.18 152.977 16.18C152.233 16.18 151.615 16.018 151.123 15.694C150.643 15.358 150.283 14.908 150.043 14.344C149.803 13.768 149.683 13.108 149.683 12.364ZM159.542 10.222C159.698 9.934 159.914 9.646 160.19 9.358C160.478 9.058 160.802 8.812 161.162 8.62C161.534 8.428 161.912 8.332 162.296 8.332C162.428 8.332 162.578 8.35 162.746 8.386C162.926 8.422 163.076 8.47 163.196 8.53C163.22 8.89 163.214 9.304 163.178 9.772C163.154 10.228 163.1 10.648 163.016 11.032H162.35L162.152 10.006C162.116 9.862 162.062 9.76 161.99 9.7C161.93 9.64 161.834 9.61 161.702 9.61C161.354 9.61 160.994 9.7 160.622 9.88C160.25 10.048 159.914 10.318 159.614 10.69L159.542 10.222ZM159.866 10.204V14.794C159.866 15.046 159.992 15.184 160.244 15.208L161.558 15.352V16H157.31V15.334L158.102 15.208C158.342 15.172 158.462 15.034 158.462 14.794V9.916C158.462 9.652 158.342 9.502 158.102 9.466L157.202 9.358V8.71C157.55 8.602 157.922 8.518 158.318 8.458C158.726 8.398 159.104 8.362 159.452 8.35L159.668 8.566L159.866 10.204ZM164.399 15.622C164.351 15.262 164.333 14.914 164.345 14.578C164.357 14.23 164.381 13.906 164.417 13.606H165.173L165.443 14.596C165.503 14.86 165.605 15.04 165.749 15.136C165.869 15.208 166.043 15.286 166.271 15.37C166.511 15.454 166.793 15.496 167.117 15.496C167.573 15.496 167.915 15.394 168.143 15.19C168.383 14.974 168.503 14.686 168.503 14.326C168.503 14.05 168.425 13.828 168.269 13.66C168.113 13.48 167.885 13.318 167.585 13.174C167.285 13.03 166.919 12.868 166.487 12.688C165.899 12.448 165.419 12.178 165.047 11.878C164.675 11.566 164.489 11.11 164.489 10.51C164.489 9.79 164.741 9.25 165.245 8.89C165.761 8.518 166.427 8.332 167.243 8.332C167.627 8.332 168.023 8.374 168.431 8.458C168.839 8.542 169.181 8.644 169.457 8.764C169.469 9.088 169.463 9.412 169.439 9.736C169.415 10.06 169.373 10.378 169.313 10.69H168.611L168.395 9.79C168.359 9.67 168.317 9.568 168.269 9.484C168.221 9.4 168.143 9.328 168.035 9.268C167.927 9.208 167.795 9.154 167.639 9.106C167.495 9.058 167.321 9.028 167.117 9.016C166.733 9.004 166.415 9.088 166.163 9.268C165.911 9.448 165.785 9.73 165.785 10.114C165.785 10.402 165.869 10.636 166.037 10.816C166.205 10.996 166.415 11.146 166.667 11.266C166.931 11.374 167.207 11.482 167.495 11.59C167.903 11.746 168.287 11.92 168.647 12.112C169.007 12.304 169.295 12.55 169.511 12.85C169.739 13.15 169.853 13.528 169.853 13.984C169.853 14.68 169.583 15.22 169.043 15.604C168.503 15.988 167.801 16.18 166.937 16.18C166.421 16.18 165.941 16.12 165.497 16C165.053 15.88 164.687 15.754 164.399 15.622Z" fill="#2E2E2E"/>
<mask id="mask0_220_2222" style="mask-type:alpha" maskUnits="userSpaceOnUse" x="0" y="3" width="18" height="18">
<circle cx="9" cy="12" r="8.5" fill="#ECD9FF" stroke="white"/>
</mask>
<g mask="url(#mask0_220_2222)">
<circle cx="9" cy="12" r="9" fill="#ECD9FF"/>
<circle cx="9" cy="10" r="3" fill="#D9A9FF"/>
<ellipse cx="9" cy="20" rx="7" ry="6" fill="#D9A9FF"/>
<circle cx="9" cy="12" r="8.5" stroke="white"/>
</g>
<mask id="mask1_220_2222" style="mask-type:alpha" maskUnits="userSpaceOnUse" x="10" y="3" width="18" height="18">
<circle cx="19" cy="12" r="8.5" fill="#ECD9FF" stroke="white"/>
</mask>
<g mask="url(#mask1_220_2222)">
<circle cx="19" cy="12" r="9" fill="#FFDAD5"/>
<circle cx="19" cy="10" r="3" fill="#FFA99C"/>
<ellipse cx="19" cy="20" rx="7" ry="6" fill="#FFA99C"/>
<circle cx="19" cy="12" r="8.5" stroke="white"/>
</g>
<mask id="mask2_220_2222" style="mask-type:alpha" maskUnits="userSpaceOnUse" x="20" y="3" width="18" height="18">
<circle cx="29" cy="12" r="8.5" fill="#ECD9FF" stroke="white"/>
</mask>
<g mask="url(#mask2_220_2222)">
<circle cx="29" cy="12" r="9" fill="#D0FFEE"/>
<circle cx="29" cy="10" r="3" fill="#11DD93"/>
<ellipse cx="29" cy="20" rx="7" ry="6" fill="#11DD93"/>
<circle cx="29" cy="12" r="8.5" stroke="white"/>
</g>
</svg>
