<svg width="133" height="24" viewBox="0 0 133 24" fill="none" xmlns="http://www.w3.org/2000/svg">
<path d="M46.212 14.74C46.212 14.956 46.332 15.082 46.572 15.118L47.922 15.334V16H42.918V15.334L44.412 15.118C44.532 15.106 44.628 15.07 44.7 15.01C44.784 14.95 44.826 14.854 44.826 14.722V8.422C44.706 8.47 44.532 8.524 44.304 8.584C44.088 8.644 43.854 8.698 43.602 8.746C43.362 8.794 43.146 8.83 42.954 8.854L42.81 8.134C43.122 8.062 43.44 7.96 43.764 7.828C44.088 7.696 44.394 7.546 44.682 7.378C44.97 7.21 45.222 7.036 45.438 6.856L46.212 7.018V14.74ZM52.7176 7.63C53.4136 7.63 53.8996 7.978 54.1756 8.674C54.4636 9.37 54.6076 10.366 54.6076 11.662C54.6076 12.43 54.5416 13.096 54.4096 13.66C54.2896 14.212 54.0976 14.644 53.8336 14.956C53.5696 15.256 53.2216 15.406 52.7896 15.406C52.0816 15.406 51.5896 15.058 51.3136 14.362C51.0376 13.654 50.8996 12.658 50.8996 11.374C50.8996 10.606 50.9596 9.946 51.0796 9.394C51.1996 8.83 51.3916 8.398 51.6556 8.098C51.9316 7.786 52.2856 7.63 52.7176 7.63ZM52.6456 16.18C53.3776 16.18 54.0076 15.988 54.5356 15.604C55.0636 15.208 55.4656 14.656 55.7416 13.948C56.0296 13.228 56.1736 12.376 56.1736 11.392C56.1736 10.516 56.0656 9.736 55.8496 9.052C55.6336 8.368 55.2796 7.834 54.7876 7.45C54.3076 7.054 53.6656 6.856 52.8616 6.856C52.1296 6.856 51.4996 7.054 50.9716 7.45C50.4436 7.834 50.0356 8.386 49.7476 9.106C49.4716 9.814 49.3336 10.66 49.3336 11.644C49.3336 12.52 49.4416 13.3 49.6576 13.984C49.8736 14.668 50.2216 15.208 50.7016 15.604C51.1936 15.988 51.8416 16.18 52.6456 16.18ZM61.366 7.63C62.062 7.63 62.548 7.978 62.824 8.674C63.112 9.37 63.256 10.366 63.256 11.662C63.256 12.43 63.19 13.096 63.058 13.66C62.938 14.212 62.746 14.644 62.482 14.956C62.218 15.256 61.87 15.406 61.438 15.406C60.73 15.406 60.238 15.058 59.962 14.362C59.686 13.654 59.548 12.658 59.548 11.374C59.548 10.606 59.608 9.946 59.728 9.394C59.848 8.83 60.04 8.398 60.304 8.098C60.58 7.786 60.934 7.63 61.366 7.63ZM61.294 16.18C62.026 16.18 62.656 15.988 63.184 15.604C63.712 15.208 64.114 14.656 64.39 13.948C64.678 13.228 64.822 12.376 64.822 11.392C64.822 10.516 64.714 9.736 64.498 9.052C64.282 8.368 63.928 7.834 63.436 7.45C62.956 7.054 62.314 6.856 61.51 6.856C60.778 6.856 60.148 7.054 59.62 7.45C59.092 7.834 58.684 8.386 58.396 9.106C58.12 9.814 57.982 10.66 57.982 11.644C57.982 12.52 58.09 13.3 58.306 13.984C58.522 14.668 58.87 15.208 59.35 15.604C59.842 15.988 60.49 16.18 61.294 16.18ZM69.2045 14.722V13.246L69.2585 12.13L68.1245 12.184H66.7385V11.194H68.1245L69.2585 11.248L69.2045 10.132V8.638H70.2665V10.132L70.2125 11.248L71.3465 11.194H72.7325V12.184H71.3465L70.2125 12.13L70.2665 13.246V14.722H69.2045ZM81.3209 16.144C80.7809 16.144 80.2889 16.018 79.8449 15.766C79.4009 15.514 79.0409 15.124 78.7649 14.596C78.5009 14.056 78.3689 13.348 78.3689 12.472C78.3689 11.548 78.5249 10.78 78.8369 10.168C79.1609 9.556 79.6109 9.1 80.1869 8.8C80.7629 8.488 81.4289 8.332 82.1849 8.332C82.5569 8.332 82.9049 8.368 83.2289 8.44C83.5649 8.5 83.8229 8.566 84.0029 8.638L83.7149 9.592C83.5949 9.472 83.3849 9.364 83.0849 9.268C82.7849 9.16 82.4609 9.106 82.1129 9.106C81.7049 9.106 81.3329 9.202 80.9969 9.394C80.6609 9.586 80.3909 9.91 80.1869 10.366C79.9829 10.822 79.8809 11.452 79.8809 12.256C79.8809 13.024 79.9709 13.618 80.1509 14.038C80.3309 14.458 80.5649 14.758 80.8529 14.938C81.1529 15.106 81.4769 15.19 81.8249 15.19C82.1969 15.19 82.5389 15.124 82.8509 14.992C83.1749 14.848 83.4569 14.662 83.6969 14.434L83.8949 14.74C83.6429 15.112 83.3009 15.442 82.8689 15.73C82.4489 16.006 81.9329 16.144 81.3209 16.144ZM84.9209 4.444V14.758C84.9209 14.914 84.9509 15.022 85.0109 15.082C85.0829 15.142 85.1789 15.178 85.2989 15.19L86.0549 15.262V15.874C85.8989 15.922 85.7009 15.97 85.4609 16.018C85.2209 16.078 84.9989 16.108 84.7949 16.108C84.3749 16.108 84.0689 15.982 83.8769 15.73C83.6849 15.478 83.5649 15.172 83.5169 14.812V5.74C83.5169 5.512 83.4029 5.38 83.1749 5.344L82.1669 5.2V4.606C82.5389 4.498 82.9589 4.414 83.4269 4.354C83.9069 4.282 84.3329 4.24 84.7049 4.228L84.9209 4.444ZM89.2438 16.144C88.6438 16.144 88.1398 15.988 87.7318 15.676C87.3358 15.364 87.1378 14.914 87.1378 14.326C87.1378 13.822 87.2818 13.426 87.5698 13.138C87.8698 12.838 88.2418 12.622 88.6858 12.49C89.1298 12.358 89.5798 12.274 90.0358 12.238L91.7998 12.094V12.778L90.2698 12.922C89.7418 12.958 89.3338 13.078 89.0458 13.282C88.7698 13.486 88.6318 13.792 88.6318 14.2C88.6318 14.524 88.7218 14.776 88.9018 14.956C89.0938 15.136 89.3758 15.226 89.7478 15.226C90.1438 15.226 90.5338 15.136 90.9178 14.956C91.3138 14.776 91.6138 14.554 91.8178 14.29L91.9798 14.632C91.7278 15.076 91.3558 15.442 90.8638 15.73C90.3838 16.006 89.8438 16.144 89.2438 16.144ZM87.3538 9.916C87.5338 9.412 87.8938 9.028 88.4338 8.764C88.9738 8.5 89.5918 8.368 90.2878 8.368C91.1638 8.368 91.8178 8.59 92.2498 9.034C92.6818 9.466 92.8978 10.132 92.8978 11.032V14.758C92.8978 15.022 93.0298 15.166 93.2938 15.19L94.0318 15.262V15.874C93.9118 15.91 93.7258 15.958 93.4738 16.018C93.2218 16.078 92.9878 16.108 92.7718 16.108C92.4118 16.108 92.1238 16.006 91.9078 15.802C91.7038 15.598 91.5778 15.298 91.5298 14.902V11.23C91.5298 10.558 91.3918 10.09 91.1158 9.826C90.8518 9.55 90.4438 9.412 89.8918 9.412C89.4838 9.412 89.0938 9.478 88.7218 9.61C88.3498 9.742 88.0078 9.958 87.6958 10.258L87.3538 9.916ZM99.944 16V15.334L100.664 15.208C100.772 15.184 100.856 15.142 100.916 15.082C100.988 15.022 101.024 14.926 101.024 14.794V11.464C101.024 10.744 100.922 10.204 100.718 9.844C100.526 9.484 100.148 9.304 99.584 9.304C99.14 9.304 98.714 9.388 98.306 9.556C97.91 9.724 97.55 9.97 97.226 10.294L97.28 9.736C97.664 9.208 98.108 8.842 98.612 8.638C99.116 8.434 99.638 8.332 100.178 8.332C101.042 8.332 101.63 8.584 101.942 9.088C102.254 9.592 102.41 10.3 102.41 11.212V14.794C102.41 15.034 102.53 15.172 102.77 15.208L103.58 15.334V16H99.944ZM95.066 16V15.334L95.858 15.208C96.098 15.172 96.218 15.034 96.218 14.794V9.88C96.218 9.652 96.104 9.52 95.876 9.484L94.958 9.358V8.71C95.318 8.602 95.696 8.518 96.092 8.458C96.5 8.398 96.878 8.362 97.226 8.35L97.478 8.584L97.622 9.88V14.794C97.622 15.034 97.736 15.172 97.964 15.208L98.702 15.334V16H95.066ZM104.665 12.382C104.665 11.602 104.803 10.912 105.079 10.312C105.355 9.7 105.757 9.22 106.285 8.872C106.825 8.512 107.491 8.332 108.283 8.332C108.703 8.332 109.123 8.38 109.543 8.476C109.963 8.572 110.305 8.686 110.569 8.818C110.593 9.166 110.587 9.538 110.551 9.934C110.527 10.318 110.491 10.678 110.443 11.014H109.723L109.435 9.934C109.411 9.802 109.381 9.694 109.345 9.61C109.309 9.526 109.249 9.454 109.165 9.394C109.057 9.298 108.913 9.226 108.733 9.178C108.553 9.118 108.355 9.088 108.139 9.088C107.527 9.088 107.053 9.334 106.717 9.826C106.381 10.318 106.213 11.062 106.213 12.058C106.213 13.126 106.399 13.918 106.771 14.434C107.155 14.95 107.695 15.208 108.391 15.208C108.787 15.208 109.147 15.13 109.471 14.974C109.795 14.818 110.059 14.632 110.263 14.416L110.659 14.758C110.443 15.202 110.101 15.55 109.633 15.802C109.177 16.054 108.625 16.18 107.977 16.18C107.245 16.18 106.633 16.018 106.141 15.694C105.649 15.358 105.277 14.908 105.025 14.344C104.785 13.768 104.665 13.114 104.665 12.382ZM112.066 12.364C112.066 11.104 112.378 10.12 113.002 9.412C113.638 8.692 114.49 8.332 115.558 8.332C116.374 8.332 117.034 8.554 117.538 8.998C118.042 9.442 118.294 10.09 118.294 10.942C118.294 11.062 118.288 11.212 118.276 11.392C118.264 11.56 118.246 11.716 118.222 11.86H113.092V11.176H116.872C116.884 11.116 116.89 11.062 116.89 11.014C116.902 10.966 116.908 10.906 116.908 10.834C116.908 10.318 116.77 9.898 116.494 9.574C116.23 9.238 115.852 9.07 115.36 9.07C114.796 9.07 114.352 9.304 114.028 9.772C113.704 10.24 113.542 10.996 113.542 12.04C113.542 12.832 113.638 13.462 113.83 13.93C114.022 14.386 114.28 14.716 114.604 14.92C114.94 15.112 115.324 15.208 115.756 15.208C116.176 15.208 116.566 15.112 116.926 14.92C117.298 14.728 117.592 14.464 117.808 14.128L118.258 14.398C118.102 14.938 117.766 15.37 117.25 15.694C116.746 16.018 116.116 16.18 115.36 16.18C114.616 16.18 113.998 16.018 113.506 15.694C113.026 15.358 112.666 14.908 112.426 14.344C112.186 13.768 112.066 13.108 112.066 12.364ZM121.925 10.222C122.081 9.934 122.297 9.646 122.573 9.358C122.861 9.058 123.185 8.812 123.545 8.62C123.917 8.428 124.295 8.332 124.679 8.332C124.811 8.332 124.961 8.35 125.129 8.386C125.309 8.422 125.459 8.47 125.579 8.53C125.603 8.89 125.597 9.304 125.561 9.772C125.537 10.228 125.483 10.648 125.399 11.032H124.733L124.535 10.006C124.499 9.862 124.445 9.76 124.373 9.7C124.313 9.64 124.217 9.61 124.085 9.61C123.737 9.61 123.377 9.7 123.005 9.88C122.633 10.048 122.297 10.318 121.997 10.69L121.925 10.222ZM122.249 10.204V14.794C122.249 15.046 122.375 15.184 122.627 15.208L123.941 15.352V16H119.693V15.334L120.485 15.208C120.725 15.172 120.845 15.034 120.845 14.794V9.916C120.845 9.652 120.725 9.502 120.485 9.466L119.585 9.358V8.71C119.933 8.602 120.305 8.518 120.701 8.458C121.109 8.398 121.487 8.362 121.835 8.35L122.051 8.566L122.249 10.204ZM126.782 15.622C126.734 15.262 126.716 14.914 126.728 14.578C126.74 14.23 126.764 13.906 126.8 13.606H127.556L127.826 14.596C127.886 14.86 127.988 15.04 128.132 15.136C128.252 15.208 128.426 15.286 128.654 15.37C128.894 15.454 129.176 15.496 129.5 15.496C129.956 15.496 130.298 15.394 130.526 15.19C130.766 14.974 130.886 14.686 130.886 14.326C130.886 14.05 130.808 13.828 130.652 13.66C130.496 13.48 130.268 13.318 129.968 13.174C129.668 13.03 129.302 12.868 128.87 12.688C128.282 12.448 127.802 12.178 127.43 11.878C127.058 11.566 126.872 11.11 126.872 10.51C126.872 9.79 127.124 9.25 127.628 8.89C128.144 8.518 128.81 8.332 129.626 8.332C130.01 8.332 130.406 8.374 130.814 8.458C131.222 8.542 131.564 8.644 131.84 8.764C131.852 9.088 131.846 9.412 131.822 9.736C131.798 10.06 131.756 10.378 131.696 10.69H130.994L130.778 9.79C130.742 9.67 130.7 9.568 130.652 9.484C130.604 9.4 130.526 9.328 130.418 9.268C130.31 9.208 130.178 9.154 130.022 9.106C129.878 9.058 129.704 9.028 129.5 9.016C129.116 9.004 128.798 9.088 128.546 9.268C128.294 9.448 128.168 9.73 128.168 10.114C128.168 10.402 128.252 10.636 128.42 10.816C128.588 10.996 128.798 11.146 129.05 11.266C129.314 11.374 129.59 11.482 129.878 11.59C130.286 11.746 130.67 11.92 131.03 12.112C131.39 12.304 131.678 12.55 131.894 12.85C132.122 13.15 132.236 13.528 132.236 13.984C132.236 14.68 131.966 15.22 131.426 15.604C130.886 15.988 130.184 16.18 129.32 16.18C128.804 16.18 128.324 16.12 127.88 16C127.436 15.88 127.07 15.754 126.782 15.622Z" fill="#2E2E2E"/>
<mask id="mask0_220_2194" style="mask-type:alpha" maskUnits="userSpaceOnUse" x="0" y="3" width="18" height="18">
<circle cx="9" cy="12" r="8.5" fill="#ECD9FF" stroke="white"/>
</mask>
<g mask="url(#mask0_220_2194)">
<circle cx="9" cy="12" r="9" fill="#ECD9FF"/>
<circle cx="9" cy="10" r="3" fill="#D9A9FF"/>
<ellipse cx="9" cy="20" rx="7" ry="6" fill="#D9A9FF"/>
<circle cx="9" cy="12" r="8.5" stroke="white"/>
</g>
<mask id="mask1_220_2194" style="mask-type:alpha" maskUnits="userSpaceOnUse" x="10" y="3" width="18" height="18">
<circle cx="19" cy="12" r="8.5" fill="#ECD9FF" stroke="white"/>
</mask>
<g mask="url(#mask1_220_2194)">
<circle cx="19" cy="12" r="9" fill="#FFDAD5"/>
<circle cx="19" cy="10" r="3" fill="#FFA99C"/>
<ellipse cx="19" cy="20" rx="7" ry="6" fill="#FFA99C"/>
<circle cx="19" cy="12" r="8.5" stroke="white"/>
</g>
<mask id="mask2_220_2194" style="mask-type:alpha" maskUnits="userSpaceOnUse" x="20" y="3" width="18" height="18">
<circle cx="29" cy="12" r="8.5" fill="#ECD9FF" stroke="white"/>
</mask>
<g mask="url(#mask2_220_2194)">
<circle cx="29" cy="12" r="9" fill="#D0FFEE"/>
<circle cx="29" cy="10" r="3" fill="#11DD93"/>
<ellipse cx="29" cy="20" rx="7" ry="6" fill="#11DD93"/>
<circle cx="29" cy="12" r="8.5" stroke="white"/>
</g>
</svg>
