<svg width="48" height="48" viewBox="0 0 48 48" fill="none" xmlns="http://www.w3.org/2000/svg">
<circle cx="24" cy="24" r="24" fill="#FFDAD5"/>
<path d="M21 26C21.5523 26 22 25.5523 22 25C22 24.4477 21.5523 24 21 24C20.4477 24 20 24.4477 20 25C20 25.5523 20.4477 26 21 26Z" fill="#F97864"/>
<path d="M28 25C28 25.5523 27.5523 26 27 26C26.4477 26 26 25.5523 26 25C26 24.4477 26.4477 24 27 24C27.5523 24 28 24.4477 28 25Z" fill="#F97864"/>
<path fill-rule="evenodd" clip-rule="evenodd" d="M24 34C29.5228 34 34 29.5228 34 24C34 18.4772 29.5228 14 24 14C18.4772 14 14 18.4772 14 24C14 29.5228 18.4772 34 24 34ZM24 32C28.4183 32 32 28.4183 32 24C32 23.1637 31.8717 22.3574 31.6337 21.5997C30.7991 21.8256 29.9212 21.946 29.0152 21.946C25.2921 21.946 22.0442 19.9114 20.3228 16.8933C17.7547 18.2249 16 20.9075 16 24C16 28.4183 19.5817 32 24 32Z" fill="#F97864"/>
</svg>
