<svg width="16" height="16" viewBox="0 0 16 16" fill="none" xmlns="http://www.w3.org/2000/svg">
<path d="M5.5 12.1667C4.57953 12.1667 3.83333 11.4205 3.83333 10.5C3.83333 9.57952 4.57953 8.83333 5.5 8.83333C6.42048 8.83333 7.16667 9.57952 7.16667 10.5C7.16667 11.4205 6.42048 12.1667 5.5 12.1667Z" fill="#797979"/>
<path fill-rule="evenodd" clip-rule="evenodd" d="M13 0.5C14.3807 0.5 15.5 1.61929 15.5 3V13C15.5 14.3807 14.3807 15.5 13 15.5H3C1.61929 15.5 0.5 14.3807 0.5 13V3C0.5 1.61929 1.61929 0.5 3 0.5H13ZM13.8333 13V3.83333H2.16667V13C2.16667 13.4602 2.53976 13.8333 3 13.8333H13C13.4602 13.8333 13.8333 13.4602 13.8333 13Z" fill="#797979"/>
</svg>
