<svg width="16" height="16" viewBox="0 0 16 16" fill="none" xmlns="http://www.w3.org/2000/svg">
<path d="M5.5 6.75006H10.5C10.7762 6.75006 11 6.52631 11 6.25006V5.75006C11 5.47381 10.7762 5.25006 10.5 5.25006H5.5C5.22375 5.25006 5 5.47381 5 5.75006V6.25006C5 6.52631 5.22375 6.75006 5.5 6.75006ZM5 9.25004C5 9.52629 5.22375 9.75004 5.5 9.75004H10.5C10.7762 9.75004 11 9.52629 11 9.25004V8.75004C11 8.47379 10.7762 8.25005 10.5 8.25005H5.5C5.22375 8.25005 5 8.47379 5 8.75004V9.25004ZM8 13.0353C7.48688 13.0353 6.97375 12.8772 6.53562 12.5606L0 7.83942V14.5C0 15.3284 0.671562 16 1.5 16H14.5C15.3284 16 16 15.3284 16 14.5V7.83942L9.46437 12.5606C9.02625 12.8769 8.51313 13.0353 8 13.0353ZM15.4253 5.09225C15.1487 4.87538 14.8866 4.67132 14.5 4.37944V3.00008C14.5 2.17165 13.8284 1.50009 13 1.50009H10.5766C10.4816 1.43134 10.3931 1.36696 10.2941 1.29509C9.76875 0.911653 8.725 -0.010841 8 9.64172e-05C7.275 -0.010841 6.23156 0.911653 5.70594 1.29509C5.60687 1.36696 5.51844 1.43134 5.42344 1.50009H3C2.17156 1.50009 1.5 2.17165 1.5 3.00008V4.37944C1.11344 4.67101 0.85125 4.87538 0.574687 5.09225C0.395674 5.23254 0.250911 5.41171 0.151348 5.61619C0.0517852 5.82067 3.08064e-05 6.04512 0 6.27256L0 6.60537L3 8.77254V3.00008H13V8.77254L16 6.60537V6.27256C16 5.81194 15.7881 5.37663 15.4253 5.09225Z" fill="#4C4C4C"/>
</svg>
