<svg width="48" height="48" viewBox="0 0 48 48" fill="none" xmlns="http://www.w3.org/2000/svg">
<circle cx="24" cy="24" r="24" fill="#FFDAD5"/>
<path fill-rule="evenodd" clip-rule="evenodd" d="M28.2721 22.2721C28.2721 24.4813 26.4813 26.2721 24.2721 26.2721C22.063 26.2721 20.2721 24.4813 20.2721 22.2721C20.2721 20.063 22.063 18.2721 24.2721 18.2721C26.4813 18.2721 28.2721 20.063 28.2721 22.2721ZM26.2721 22.2721C26.2721 23.3767 25.3767 24.2721 24.2721 24.2721C23.1675 24.2721 22.2721 23.3767 22.2721 22.2721C22.2721 21.1676 23.1675 20.2721 24.2721 20.2721C25.3767 20.2721 26.2721 21.1676 26.2721 22.2721Z" fill="#F97864"/>
<path fill-rule="evenodd" clip-rule="evenodd" d="M17.7941 28.5183C14.1942 25.0909 14.0544 19.3941 17.4817 15.7942C20.9091 12.1942 26.6059 12.0544 30.2058 15.4818C33.8058 18.9092 33.9456 24.6059 30.5182 28.2059L24.3124 34.7241L17.7941 28.5183ZM29.0697 26.8268L24.243 31.8965L19.1732 27.0698C16.3733 24.404 16.2645 19.9732 18.9302 17.1732C21.596 14.3733 26.0268 14.2645 28.8268 16.9303C31.6267 19.596 31.7355 24.0268 29.0697 26.8268Z" fill="#F97864"/>
</svg>
