<svg width="24" height="18" viewBox="0 0 24 18" fill="none" xmlns="http://www.w3.org/2000/svg">
<path d="M23.6667 16.0056C23.6667 16.6468 23.1468 17.1666 22.5056 17.1666H13.1611C12.5198 17.1666 12 16.6468 12 16.0056C12 15.3644 12.5198 14.8445 13.1611 14.8445H22.5056C23.1468 14.8445 23.6667 15.3644 23.6667 16.0056Z" fill="#220957"/>
<path d="M23.6667 9.00026C23.6667 9.6415 23.1468 10.1613 22.5056 10.1613H1.49439C0.853153 10.1613 0.333328 9.6415 0.333328 9.00026C0.333328 8.35903 0.853151 7.8392 1.49439 7.8392H22.5056C23.1468 7.8392 23.6667 8.35903 23.6667 9.00026Z" fill="#220957"/>
<path d="M22.5056 3.15543C23.1468 3.15543 23.6667 2.63561 23.6667 1.99437C23.6667 1.35314 23.1468 0.833313 22.5056 0.833313H8.49439C7.85315 0.833313 7.33333 1.35314 7.33333 1.99437C7.33333 2.63561 7.85315 3.15543 8.49439 3.15543H22.5056Z" fill="#220957"/>
</svg>
