<svg width="48" height="48" viewBox="0 0 48 48" fill="none" xmlns="http://www.w3.org/2000/svg">
<circle cx="24" cy="24" r="24" fill="#FFDAD5"/>
<path d="M23 18H25V19C25 19.5523 24.5523 20 24 20C23.4477 20 23 19.5523 23 19V18Z" fill="#F97864"/>
<path fill-rule="evenodd" clip-rule="evenodd" d="M30 14V16H29V19C29 21.7614 26.7614 24 24 24C26.7614 24 29 26.2386 29 29V32H30V34H18V32H19V29C19 26.2386 21.2386 24 24 24C21.2386 24 19 21.7614 19 19V16H18V14H30ZM27 16H21V19C21 20.6569 22.3431 22 24 22C25.6569 22 27 20.6569 27 19V16ZM27 29V32H21V29C21 27.3431 22.3431 26 24 26C25.6569 26 27 27.3431 27 29Z" fill="#F97864"/>
</svg>
