<svg width="16" height="16" viewBox="0 0 16 16" fill="none" xmlns="http://www.w3.org/2000/svg">
<path d="M8.83333 2.22574C11.6602 2.6301 13.8333 5.06127 13.8333 8C13.8333 11.2217 11.2217 13.8333 8 13.8333C4.77834 13.8333 2.16667 11.2217 2.16667 8C2.16667 6.30133 2.89274 4.77224 4.05146 3.70615L2.87215 2.52684C1.41218 3.89525 0.5 5.8411 0.5 8C0.5 12.1421 3.85786 15.5 8 15.5C12.1421 15.5 15.5 12.1421 15.5 8C15.5 3.85786 12.1421 0.5 8 0.5C7.71833 0.5 7.44028 0.515528 7.16667 0.545774V5.57126H8.83333V2.22574Z" fill="#797979"/>
<path d="M4.42259 5.2559C4.09715 5.58134 4.09715 6.10897 4.42259 6.43441L6.77961 8.79143C7.10505 9.11687 7.63269 9.11687 7.95812 8.79143C8.28356 8.466 8.28356 7.93836 7.95812 7.61292L5.6011 5.2559C5.27566 4.93046 4.74803 4.93046 4.42259 5.2559Z" fill="#797979"/>
</svg>
