<svg width="8" height="13" viewBox="0 0 8 13" fill="none" xmlns="http://www.w3.org/2000/svg">
<path fill-rule="evenodd" clip-rule="evenodd" d="M6.66667 3.00309C6.66667 4.47585 5.47276 5.66976 4 5.66976C2.52724 5.66976 1.33333 4.47585 1.33333 3.00309C1.33333 1.53033 2.52724 0.336426 4 0.336426C5.47276 0.336426 6.66667 1.53033 6.66667 3.00309ZM5.33333 3.00309C5.33333 3.73947 4.73638 4.33643 4 4.33643C3.26362 4.33643 2.66667 3.73947 2.66667 3.00309C2.66667 2.26671 3.26362 1.66976 4 1.66976C4.73638 1.66976 5.33333 2.26671 5.33333 3.00309Z" fill="#797979"/>
<path d="M6.66667 8.33643C6.66667 7.96824 6.36819 7.66976 6 7.66976H2C1.63181 7.66976 1.33333 7.96824 1.33333 8.33643V12.3364H0V8.33643C0 7.23186 0.895431 6.33643 2 6.33643H6C7.10457 6.33643 8 7.23186 8 8.33643V12.3364H6.66667V8.33643Z" fill="#797979"/>
</svg>
