<svg width="48" height="48" viewBox="0 0 48 48" fill="none" xmlns="http://www.w3.org/2000/svg">
<circle cx="24" cy="24" r="24" fill="#FFDAD5"/>
<g clip-path="url(#clip0_220_1394)">
<path fill-rule="evenodd" clip-rule="evenodd" d="M16.0882 16.5992V18.6434H24.2647V19.6654H15.0662C13.3728 19.6654 12 21.0382 12 22.7316V28.8639C12 30.5574 13.3728 31.9301 15.0662 31.9301H27.3309C28.9387 31.9301 30.2575 30.6926 30.3867 29.1182L36.5294 29.886V21.7095L30.3867 22.4774C30.2575 20.9029 28.9387 19.6654 27.3309 19.6654H26.3088V17.6213C26.3088 17.0568 25.8512 16.5992 25.2868 16.5992H16.0882ZM30.3971 24.5361V27.0594L34.4853 27.5705V24.0251L30.3971 24.5361ZM28.3529 22.7316C28.3529 22.1671 27.8953 21.7095 27.3309 21.7095H15.0662C14.5017 21.7095 14.0441 22.1671 14.0441 22.7316V28.8639C14.0441 29.4284 14.5017 29.886 15.0662 29.886H27.3309C27.8953 29.886 28.3529 29.4284 28.3529 28.8639V22.7316Z" fill="#F97864"/>
</g>
<defs>
<clipPath id="clip0_220_1394">
<rect width="24" height="24" fill="white" transform="translate(12 12)"/>
</clipPath>
</defs>
</svg>
